<?xml version="1.0" standalone="no"?>
<!DOCTYPE svg PUBLIC "-//W3C//DTD SVG 20010904//EN"
 "http://www.w3.org/TR/2001/REC-SVG-20010904/DTD/svg10.dtd">
<svg version="1.0" xmlns="http://www.w3.org/2000/svg"
 width="512.000000pt" height="512.000000pt" viewBox="0 0 512.000000 512.000000"
 preserveAspectRatio="xMidYMid meet">

<g transform="translate(0.000000,512.000000) scale(0.100000,-0.100000)"
fill="#000000" stroke="none">
<path d="M1962 4814 c-52 -36 -52 -36 -52 -558 l0 -485 -787 -3 -788 -3 -55
-22 c-111 -46 -207 -142 -253 -253 l-22 -55 -3 -1375 c-2 -958 1 -1391 8
-1427 27 -130 121 -246 247 -306 l68 -32 2235 0 2235 0 68 32 c126 60 220 176
247 306 7 36 10 469 8 1427 l-3 1375 -22 55 c-46 111 -142 207 -253 253 l-55
22 -787 3 -788 3 0 485 c0 411 -2 489 -15 514 -32 63 -3 60 -635 60 -505 0
-578 -2 -598 -16z m1008 -804 l0 -580 -410 0 -410 0 0 580 0 580 410 0 410 0
0 -580z m-1060 -605 c0 -92 4 -134 15 -155 32 -63 3 -60 635 -60 632 0 603 -3
635 60 11 21 15 63 15 155 l0 125 755 0 c659 0 760 -2 793 -15 49 -21 81 -52
103 -100 18 -38 19 -98 19 -1385 0 -1288 -1 -1347 -19 -1385 -22 -47 -64 -89
-104 -104 -40 -15 -4354 -15 -4394 0 -40 15 -82 57 -104 104 -18 38 -19 97
-19 1383 0 1190 2 1347 15 1380 21 49 52 81 100 103 38 18 82 19 798 19 l757
0 0 -125z"/>
<path d="M1460 3153 c-109 -17 -247 -98 -322 -190 -174 -210 -158 -524 36
-719 103 -103 234 -156 382 -155 285 0 513 215 531 499 10 162 -41 296 -157
413 -122 124 -296 180 -470 152z m225 -266 c136 -69 199 -228 146 -369 -79
-207 -355 -257 -501 -91 -50 57 -72 115 -72 194 -1 126 71 232 190 280 66 27
169 21 237 -14z"/>
<path d="M2855 2884 c-47 -24 -65 -53 -65 -107 0 -42 5 -54 34 -83 l34 -34
856 0 855 0 35 31 c45 39 55 84 30 136 -38 77 13 73 -919 73 -729 0 -834 -2
-860 -16z"/>
<path d="M2855 2136 c-43 -18 -65 -57 -65 -110 0 -36 6 -52 29 -78 l29 -33
862 -3 862 -2 33 33 c19 19 37 46 41 61 9 37 -15 94 -49 120 -28 21 -31 21
-870 23 -685 2 -848 0 -872 -11z"/>
<path d="M983 2006 c-187 -46 -344 -197 -410 -394 -12 -37 -17 -109 -20 -329
-4 -251 -3 -285 12 -318 33 -69 -25 -65 996 -65 l921 0 35 35 34 34 -3 308 -3
308 -28 70 c-58 148 -184 273 -332 332 l-70 28 -540 2 c-413 1 -552 -1 -592
-11z m1124 -248 c77 -29 152 -104 181 -181 20 -52 22 -78 22 -247 l0 -190
-761 0 -761 0 4 198 c3 176 6 202 25 244 39 85 126 162 213 189 14 4 249 8
522 8 486 1 499 0 555 -21z"/>
<path d="M2854 1386 c-44 -20 -64 -52 -64 -107 0 -53 23 -90 67 -108 21 -8
253 -11 876 -9 l849 3 29 32 c16 18 31 44 35 58 9 38 -17 96 -55 122 l-34 23
-836 0 c-682 -1 -842 -3 -867 -14z"/>
</g>
</svg>
