<?xml version="1.0" standalone="no"?>
<!DOCTYPE svg PUBLIC "-//W3C//DTD SVG 20010904//EN"
 "http://www.w3.org/TR/2001/REC-SVG-20010904/DTD/svg10.dtd">
<svg version="1.0" xmlns="http://www.w3.org/2000/svg"
 width="2048.000000pt" height="2048.000000pt" viewBox="0 0 2048.000000 2048.000000"
 preserveAspectRatio="xMidYMid meet">

<g transform="translate(0.000000,2048.000000) scale(0.100000,-0.100000)"
fill="#000000" stroke="none">
<path d="M2110 20470 c-356 -26 -729 -146 -1028 -332 -288 -179 -561 -452
-739 -739 -61 -97 -156 -291 -197 -403 -48 -126 -99 -328 -122 -481 -18 -116
-19 -386 -19 -8275 0 -7889 1 -8159 19 -8275 78 -508 296 -944 646 -1295 179
-178 353 -304 580 -419 233 -119 459 -189 726 -227 125 -18 389 -19 8264 -19
7855 0 8139 1 8265 18 503 72 952 294 1305 647 177 177 304 354 419 580 118
233 190 462 228 725 17 126 18 410 18 8265 0 7855 -1 8139 -18 8265 -37 255
-109 488 -219 709 -114 228 -252 420 -428 596 -176 176 -368 314 -596 428
-210 105 -413 170 -669 214 l-130 23 -8100 1 c-4455 1 -8147 -2 -8205 -6z
m2711 -2841 c633 -64 1180 -446 1454 -1014 212 -440 241 -936 83 -1394 -221
-641 -765 -1099 -1433 -1207 -144 -23 -400 -23 -547 0 -1153 181 -1840 1397
-1403 2486 109 272 289 523 508 706 381 320 861 472 1338 423z m9712 -4643
c631 -69 1160 -250 1607 -548 182 -121 283 -202 434 -348 582 -564 933 -1370
1036 -2385 28 -276 30 -573 30 -3667 l0 -3198 -1525 0 -1525 0 -3 2788 c-3
3000 -1 2834 -52 3126 -100 569 -333 987 -682 1224 -83 56 -230 128 -333 163
-417 139 -996 111 -1407 -70 -504 -221 -844 -694 -972 -1351 -59 -302 -55 -79
-58 -3107 l-3 -2773 -1470 0 -1470 0 0 4935 0 4935 1470 0 1470 0 0 -656 0
-656 58 88 c110 166 237 319 412 495 292 294 561 490 919 669 363 181 783 301
1191 339 63 6 133 13 155 15 87 9 588 -4 718 -18z m-8338 -5211 l0 -4930
-1530 0 -1530 0 -3 4920 c-1 2706 0 4926 3 4933 3 10 315 12 1532 10 l1528 -3
0 -4930z"/>
</g>
</svg>
