<svg xmlns="http://www.w3.org/2000/svg" xmlns:xlink="http://www.w3.org/1999/xlink" width="1921" height="827" viewBox="0 0 1921 827">
  <defs>
    <clipPath id="clip-path">
      <rect id="Rectangle_78" data-name="Rectangle 78" width="1921" height="827" transform="translate(0 2348)" fill="#fff" stroke="#707070" stroke-width="1"/>
    </clipPath>
    <clipPath id="clip-path-2">
      <rect id="Rectangle_67" data-name="Rectangle 67" width="2044.284" height="1175.651" fill="none"/>
    </clipPath>
    <linearGradient id="linear-gradient" x1="0.146" y1="0.854" x2="0.854" y2="0.146" gradientUnits="objectBoundingBox">
      <stop offset="0" stop-color="#168831"/>
      <stop offset="1" stop-color="#94b605"/>
    </linearGradient>
    <linearGradient id="linear-gradient-2" x1="0.146" y1="0.854" x2="0.854" y2="0.146" gradientUnits="objectBoundingBox">
      <stop offset="0" stop-color="#00749c"/>
      <stop offset="0.261" stop-color="#0081b2"/>
      <stop offset="0.744" stop-color="#0098d7"/>
      <stop offset="1" stop-color="#00a1e6"/>
    </linearGradient>
    <linearGradient id="linear-gradient-3" y1="0.5" x2="1" y2="0.5" gradientUnits="objectBoundingBox">
      <stop offset="0" stop-color="#de2035"/>
      <stop offset="0.171" stop-color="#e1332c"/>
      <stop offset="0.366" stop-color="#e44226"/>
      <stop offset="0.604" stop-color="#e54a23"/>
      <stop offset="0.999" stop-color="#e64d22"/>
    </linearGradient>
    <linearGradient id="linear-gradient-4" x1="-0.234" y1="-0.846" x2="0.531" y2="-1.681" gradientUnits="objectBoundingBox">
      <stop offset="0" stop-color="#8b004e"/>
      <stop offset="0.129" stop-color="#a20057"/>
      <stop offset="0.283" stop-color="#b7005f"/>
      <stop offset="0.457" stop-color="#c50064"/>
      <stop offset="0.665" stop-color="#ce0068"/>
      <stop offset="1" stop-color="#d10069"/>
    </linearGradient>
    <linearGradient id="linear-gradient-5" x1="-0.216" y1="-3.351" x2="0.85" y2="-3.351" xlink:href="#linear-gradient-2"/>
  </defs>
  <g id="Groupe_de_masques_1907" data-name="Groupe de masques 1907" transform="translate(0 -2348)" clip-path="url(#clip-path)">
    <g id="Groupe_1902" data-name="Groupe 1902" transform="translate(3018.418 52.589)" opacity="0.169">
      <g id="Groupe_1901" data-name="Groupe 1901" transform="translate(-3142.702 2192.411)" clip-path="url(#clip-path-2)">
        <g id="Groupe_1896" data-name="Groupe 1896" transform="translate(393.578 311.023)">
          <circle id="Ellipse_63" data-name="Ellipse 63" cx="698.697" cy="698.697" r="698.697" transform="translate(55.54 55.539)" fill="#fff"/>
          <path id="Tracé_31463" data-name="Tracé 31463" d="M-2256.634,3804.011a758.874,758.874,0,0,1-185.172-23.06c-195.3-49.107-359.8-171.332-463.171-344.153s-133.266-375.564-84.161-570.866,171.332-359.793,344.157-463.172,375.561-133.263,570.862-84.158,359.8,171.329,463.172,344.154,133.265,375.561,84.161,570.862-171.329,359.794-344.154,463.176C-1989.451,3767.679-2122.032,3804.011-2256.634,3804.011Zm-2.465-1397.957c-114.886,0-228.021,31-329.176,91.514-147.5,88.229-251.817,228.619-293.728,395.3s-16.4,339.721,71.829,487.22c120.394,201.267,334.225,312.991,553.28,313.006a639.449,639.449,0,0,0,329.247-91.11c147.5-88.229,251.813-228.618,293.725-395.3s16.4-339.72-71.829-487.22-228.618-251.814-395.306-293.725A647.747,647.747,0,0,0-2259.1,2406.054Z" transform="translate(3012.2 -2295.541)" fill="url(#linear-gradient)"/>
        </g>
        <g id="Groupe_1897" data-name="Groupe 1897" transform="translate(1113.094 114.491)">
          <circle id="Ellipse_64" data-name="Ellipse 64" cx="734.121" cy="734.121" r="734.121" transform="translate(45.024 45.022)" fill="#fff"/>
          <path id="Tracé_31464" data-name="Tracé 31464" d="M-1993.105,3788.661a783.79,783.79,0,0,1-191.288-23.826c-201.752-50.727-371.676-176.987-478.468-355.517s-137.666-387.962-86.939-589.715,176.99-371.676,355.521-478.465,387.959-137.666,589.715-86.939,371.676,176.987,478.465,355.521,137.666,387.958,86.939,589.712-176.987,371.676-355.517,478.465C-1717.1,3751.128-1854.061,3788.661-1993.105,3788.661Zm-2.591-1468.834c-123.093,0-244.3,33.218-352.682,98.043-158.035,94.532-269.8,244.946-314.7,423.534s-17.574,363.979,76.957,522.015,244.946,269.8,423.537,314.7a694.231,694.231,0,0,0,169.326,21.09c123.094.006,244.3-33.219,352.683-98.046,158.035-94.532,269.8-244.946,314.7-423.537s17.571-363.974-76.959-522.009-244.943-269.8-423.533-314.7A694.116,694.116,0,0,0-1995.7,2319.827Z" transform="translate(2773.625 -2230.374)" fill="url(#linear-gradient-2)"/>
        </g>
        <g id="Groupe_1898" data-name="Groupe 1898" transform="translate(45.417 664.971)">
          <circle id="Ellipse_65" data-name="Ellipse 65" cx="465.92" cy="465.92" r="465.92" transform="translate(44.761 44.76)" fill="#fff"/>
          <path id="Tracé_31465" data-name="Tracé 31465" d="M-2616.3,3434.452a512.393,512.393,0,0,1-148.061-21.98c-269.577-81.275-422.771-366.713-341.5-636.289h0c81.275-269.577,366.7-422.765,636.292-341.493,269.574,81.278,422.768,366.715,341.493,636.289-39.372,130.587-127.24,238.028-247.419,302.528A508.091,508.091,0,0,1-2616.3,3434.452ZM-3020.242,2802c-67.043,222.369,59.325,457.824,281.695,524.867,107.721,32.475,221.642,21.063,320.774-32.146s171.617-141.831,204.093-249.551c67.043-222.367-59.325-457.823-281.695-524.868s-457.825,59.326-524.867,281.7Z" transform="translate(3127.643 -2412.902)" fill="url(#linear-gradient-3)"/>
        </g>
        <g id="Groupe_1899" data-name="Groupe 1899" transform="translate(539.239 217.849)">
          <path id="Tracé_31466" data-name="Tracé 31466" d="M-1385.479,3120.429c105.332,31.381,223.042,19.256,324.97-33.855,103.375-53.87,177.922-142.6,209.95-249.9,37.707-128.854,27.426-243.718-30.563-341.394-51.867-87.364-139.176-155.01-245.843-190.477-117.335-39.014-241.607-32.75-340.948,17.188-97.18,48.854-166.9,135.717-207.241,258.18l-1.852,5.625-2.241,5.486c-65.858,161.322-148.912,276.561-253.913,352.3l-1.348.974-1.372.947-12.045,8.339-1.384.956-1.4.929c-193.411,128.292-399.889,91.734-565.8,62.359-70.025-12.4-136.26-24.124-187.744-21.081-82.782,11.035-159.642,61.671-201.753,133.033-46.321,85.862-55.292,166.229-26.669,238.917,30.011,76.217,99.973,139.023,187.146,168.008,63.675,21.172,129.765,21.266,186.091.264,64.57-24.076,116.763-74.954,155.125-151.222l4.156-8.261,5.024-7.766a1178.987,1178.987,0,0,1,82.68-113.291" transform="translate(2993.879 -2234.783)" fill="#fff"/>
          <path id="Tracé_31467" data-name="Tracé 31467" d="M-2619.357,3627.464a350.365,350.365,0,0,1-110.3-18.213c-99.6-33.117-179.837-105.658-214.643-194.053-33.669-85.507-23.937-178.543,28.922-276.526l.844-1.493c48.749-82.611,138.546-141.864,234.349-154.63l3.266-.313c56.732-3.354,125.415,8.8,198.137,21.678,80.4,14.231,171.492,30.349,263.343,27.294,102.778-3.436,191.092-30.542,269.99-82.879l2.086-1.412,14.009-9.727c98.022-70.7,176.094-179.61,238.688-332.946l1.656-4.048,1.363-4.144c44.191-134.167,121.447-229.765,229.628-284.147,109.875-55.235,246.611-62.4,375.133-19.669C-966.011,2331.1-870.06,2405.706-812.7,2502.316c64.575,108.768,76.361,235.534,35.026,376.777-35.581,119.205-118.02,217.5-232.2,276.99-111.6,58.158-242.231,71.666-358.4,37.056l25.529-85.692c94.1,28.035,200.362,16.855,291.547-30.66,92.545-48.224,159.229-127.436,187.765-223.039,34.022-116.244,25.24-219.2-26.163-305.786-46.378-78.114-125.043-138.8-221.5-170.873-106.147-35.294-217.958-29.936-306.762,14.708-86.179,43.32-148.372,121.453-184.859,232.22l-2.931,8.553-2.238,5.483c-69.109,169.29-157.149,290.863-269.143,371.646l-3.441,2.434-15.539,10.7c-93.124,61.771-196.629,93.74-316.446,97.741-101.239,3.39-197.193-13.613-281.872-28.6-66.642-11.8-129.607-22.974-175.672-20.562-68.328,9.63-132.161,51.822-167.1,110.5-39.418,73.418-47.491,140.88-24,200.531,25.216,64.035,84.9,117.11,159.657,141.963,54.03,17.966,109.561,18.249,156.367.8,53.662-20.01,97.669-63.553,130.8-129.417l5.245-10.429,6.343-9.8a1231.647,1231.647,0,0,1,85.829-117.577l68.768,57.148a1143.12,1143.12,0,0,0-79.532,109.012l-3.707,5.727-3.064,6.095c-43.594,86.668-103.966,144.88-179.444,173.024C-2546.883,3621.3-2582.658,3627.46-2619.357,3627.464Z" transform="translate(2963.902 -2264.646)" fill="url(#linear-gradient-4)"/>
        </g>
        <g id="Groupe_1900" data-name="Groupe 1900" transform="translate(1205.327 948.015)">
          <path id="Tracé_31468" data-name="Tracé 31468" d="M-2729.768,2910.082a889.516,889.516,0,0,1,64.64-110.113c123.949-191.423,348.1-296.992,585.9-275.683a686.78,686.78,0,0,1,118.717,21.316l2.826.769,2.8.865a405.976,405.976,0,0,0,83.525,16.5q6.256.561,12.521.923" transform="translate(2769.798 -2476.871)" fill="#fff"/>
          <path id="Tracé_31469" data-name="Tracé 31469" d="M-2662.985,2959.882l-80.056-39.833a941.058,941.058,0,0,1,67.516-115.074c133.006-204.934,373.19-318.1,627.045-295.335a731.872,731.872,0,0,1,126.465,22.707l7.066,2.051a360.836,360.836,0,0,0,74.329,14.688q5.56.5,11.116.82l-5.16,89.27c-4.6-.268-9.289-.612-13.936-1.031a450.47,450.47,0,0,1-92.742-18.312l-4.159-1.207a642.1,642.1,0,0,0-110.96-19.923c-220.934-19.829-429.533,78.084-544.384,255.454l-.756,1.128A838.95,838.95,0,0,0-2662.985,2959.882Z" transform="translate(2743.041 -2506.753)" fill="url(#linear-gradient-5)"/>
        </g>
      </g>
    </g>
  </g>
</svg>
